<?xml version="1.0" encoding="UTF-8" standalone="no"?>
<!-- Created with Inkscape (http://www.inkscape.org/) -->

<svg
   width="621.54987"
   height="320.38083"
   viewBox="0 0 164.45174 84.767435"
   version="1.1"
   id="svg5"
   inkscape:version="1.1.2 (b8e25be833, 2022-02-05)"
   sodipodi:docname="logoArtko2.svg"
   inkscape:export-filename="C:\workshop\antiguo sitio web kosho y varias fotografias\logo\logoArtko.png"
   inkscape:export-xdpi="300"
   inkscape:export-ydpi="300"
   xmlns:inkscape="http://www.inkscape.org/namespaces/inkscape"
   xmlns:sodipodi="http://sodipodi.sourceforge.net/DTD/sodipodi-0.dtd"
   xmlns="http://www.w3.org/2000/svg"
   xmlns:svg="http://www.w3.org/2000/svg">
  <sodipodi:namedview
     id="namedview7"
     pagecolor="#ffffff"
     bordercolor="#666666"
     borderopacity="1.0"
     inkscape:pageshadow="2"
     inkscape:pageopacity="0.0"
     inkscape:pagecheckerboard="0"
     inkscape:document-units="mm"
     showgrid="false"
     inkscape:zoom="0.54252946"
     inkscape:cx="52.53171"
     inkscape:cy="151.14387"
     inkscape:window-width="1600"
     inkscape:window-height="837"
     inkscape:window-x="-8"
     inkscape:window-y="-8"
     inkscape:window-maximized="1"
     inkscape:current-layer="g24233"
     fit-margin-top="0"
     fit-margin-left="0"
     fit-margin-right="0"
     fit-margin-bottom="0"
     showguides="true"
     inkscape:guide-bbox="true"
     units="px" />
  <defs
     id="defs2">
    <inkscape:path-effect
       effect="powerstroke"
       id="path-effect11402"
       is_visible="true"
       lpeversion="1"
       offset_points="0,3.1918781"
       not_jump="true"
       sort_points="true"
       interpolator_type="CentripetalCatmullRom"
       interpolator_beta="0.75"
       start_linecap_type="round"
       linejoin_type="spiro"
       miter_limit="4"
       scale_width="1"
       end_linecap_type="round" />
    <inkscape:path-effect
       effect="simplify"
       id="path-effect11400"
       is_visible="true"
       lpeversion="1"
       steps="1"
       threshold="0.0032025118"
       smooth_angles="0"
       helper_size="0"
       simplify_individual_paths="false"
       simplify_just_coalesce="false"
       step="1" />
    <inkscape:perspective
       sodipodi:type="inkscape:persp3d"
       inkscape:vp_x="150.93843 : 40.945823 : 1"
       inkscape:vp_y="0 : 1000 : 0"
       inkscape:vp_z="202.6551 : 40.945823 : 1"
       inkscape:persp3d-origin="176.79677 : 29.589851 : 1"
       id="perspective10212" />
    <inkscape:path-effect
       effect="spiro"
       id="path-effect30547"
       is_visible="true"
       lpeversion="1" />
    <inkscape:path-effect
       effect="spiro"
       id="path-effect30187"
       is_visible="true"
       lpeversion="1" />
    <inkscape:path-effect
       effect="spiro"
       id="path-effect7540"
       is_visible="true"
       lpeversion="1" />
    <inkscape:path-effect
       effect="powerstroke"
       id="path-effect968"
       is_visible="true"
       lpeversion="1"
       offset_points="0.40388041,2.2860221"
       not_jump="true"
       sort_points="true"
       interpolator_type="CentripetalCatmullRom"
       interpolator_beta="0.75"
       start_linecap_type="round"
       linejoin_type="spiro"
       miter_limit="4"
       scale_width="1"
       end_linecap_type="round" />
    <inkscape:path-effect
       effect="simplify"
       id="path-effect966"
       is_visible="true"
       lpeversion="1"
       steps="1"
       threshold="0.0032025118"
       smooth_angles="0"
       helper_size="0"
       simplify_individual_paths="false"
       simplify_just_coalesce="false"
       step="1" />
    <inkscape:path-effect
       effect="spiro"
       id="path-effect963"
       is_visible="true"
       lpeversion="1" />
  </defs>
  <g
     inkscape:label="Capa 1"
     inkscape:groupmode="layer"
     id="layer1"
     transform="translate(-55.030336,-22.061881)">
    <g
       id="g1658"
       transform="matrix(0.79757078,0,0,0.42365309,-5.3808965,37.530422)">
      <g
         id="g19059">
        <g
           id="g24233"
           style="fill:#483745">
          <g
             id="g35644">
            <g
               id="g4209"
               transform="matrix(1.3453763,3.6187366,-7.6690048,7.3844647,148.57024,-170.07561)"
               inkscape:export-filename="C:\workshop\antiguo sitio web kosho y varias fotografias\logo\logo.png"
               inkscape:export-xdpi="300"
               inkscape:export-ydpi="300"
               style="fill:#de87aa">
              <path
                 d="m 56.019693,16.457438 c 0,0 -0.172151,0.578516 0,0 0.415601,-1.396635 1.240047,-4.188141 2.295483,-6.6116697 0.410366,-0.9139211 0.806649,-1.7133068 1.296094,-2.3146493 0.09377,-0.1124585 0.175424,-0.1824222 0.185351,-0.1896586 0.0094,-0.00687 -0.06177,0.046498 -0.209455,0.081551 -0.117183,0.025453 -0.15352,0.00657 -0.03253,0.02054 0.152005,0.017554 0.319476,0.053418 0.704177,0.1374367 0.42537,0.096566 0.959249,0.2067035 1.539642,0.2652663 0.597882,0.060327 1.285674,0.070868 2.022544,-0.053736 0.944993,-0.1538933 1.769744,-0.4868248 2.457758,-0.8663436 0.717942,-0.3960277 1.327541,-0.8650754 1.822021,-1.304038 0.0033,-0.00294 0.0066,-0.00589 0.0099,-0.00885 1.558657,-1.3953114 2.700696,-3.0584275 3.460428,-4.2217604 0.0026,-0.00395 0.0051,-0.0079 0.0077,-0.011864 0.447402,-0.69175988 0.810714,-1.30708965 1.023594,-1.6736343 a 3.1918781,3.1918781 90 0 0 -5.520294,-3.2060422 c -0.187003,0.3219898 -0.491893,0.8377293 -0.859834,1.406933 -0.707467,1.0833027 -1.470055,2.14342749 -2.364415,2.94548244 -0.241873,0.21422566 -0.464894,0.37502696 -0.662518,0.48403946 -0.188115,0.1037672 -0.320076,0.1424449 -0.402053,0.1555791 -0.01196,0.00192 -0.02392,0.0039 -0.03586,0.00596 -0.03391,0.00583 -0.127408,0.016016 -0.318129,-0.00323 -0.196681,-0.019846 -0.436751,-0.063897 -0.777948,-0.1415449 -0.009,-0.00206 -0.01807,-0.00407 -0.02712,-0.00605 -0.286347,-0.062549 -0.806401,-0.182752 -1.347283,-0.2452143 -0.575576,-0.066469 -1.310345,-0.088327 -2.117313,0.096727 -0.871101,0.1968433 -1.583539,0.5833033 -2.133297,0.9840236 -0.570326,0.4157132 -1.01707,0.8839056 -1.350268,1.2869767 -0.0037,0.00448 -0.0074,0.00897 -0.01107,0.013467 -1.085391,1.3277035 -1.777235,2.8429716 -2.190557,3.7634681 -0.0047,0.010415 -0.0093,0.020855 -0.01386,0.03132 -1.241566,2.8463988 -2.173691,6.0285738 -2.569526,7.3587818 -0.176939,0.594609 0,0 0,0 a 3.1918781,3.1918781 90 0 0 6.118602,1.820732 z"
                 id="path-1"
                 inkscape:path-effect="#path-effect11400;#path-effect11402"
                 inkscape:original-d="M 52.960392,15.547072 C 59.576309,-6.9391455 60.61304,13.996843 69.842294,-1.8969915"
                 style="fill:#de87aa;fill-rule:nonzero;stroke:none;stroke-width:1.00738px;stroke-linecap:butt;stroke-linejoin:miter;stroke-opacity:1"
                 sodipodi:nodetypes="cc" />
            </g>
            <text
               xml:space="preserve"
               style="font-style:normal;font-variant:normal;font-weight:normal;font-stretch:normal;font-size:140.505px;line-height:1.25;font-family:Verdana;-inkscape-font-specification:Verdana;fill:#483745;fill-opacity:1;stroke-width:3.51263"
               x="133.51297"
               y="86.882645"
               id="text13428"
               transform="scale(0.54415191,1.8377221)"><tspan
                 sodipodi:role="line"
                 id="tspan13426"
                 style="font-style:normal;font-variant:normal;font-weight:normal;font-stretch:normal;font-family:Verdana;-inkscape-font-specification:Verdana;fill:#483745;fill-opacity:1;stroke-width:3.51263"
                 x="133.51297"
                 y="86.882645">artko</tspan></text>
          </g>
        </g>
      </g>
    </g>
    <path
       style="fill:#000000;stroke:none;stroke-width:1px;stroke-linecap:butt;stroke-linejoin:miter;stroke-opacity:1"
       d="M 184.32179,346.52496 180.63535,587.9865"
       id="path961"
       inkscape:path-effect="#path-effect963"
       inkscape:original-d="M 184.32179,346.52496 180.63535,587.9865" />
    <path
       style="fill:#ff5555;fill-opacity:1;stroke:none;stroke-width:0.0487655;stroke-linejoin:bevel;paint-order:markers fill stroke"
       d=""
       id="path33999"
       transform="matrix(0.26458333,0,0,0.26458333,26.037849,62.911327)" />
  </g>
</svg>
