<?xml version="1.0" encoding="UTF-8" standalone="no"?>
<!-- Created with Inkscape (http://www.inkscape.org/) -->

<svg
   width="646.03076"
   height="320.38083"
   viewBox="0 0 170.92898 84.767435"
   version="1.1"
   id="svg5"
   inkscape:version="1.1.2 (b8e25be833, 2022-02-05)"
   sodipodi:docname="logoArtko1.svg"
   inkscape:export-filename="C:\workshop\antiguo sitio web kosho y varias fotografias\logo\logoArtko.png"
   inkscape:export-xdpi="300"
   inkscape:export-ydpi="300"
   xmlns:inkscape="http://www.inkscape.org/namespaces/inkscape"
   xmlns:sodipodi="http://sodipodi.sourceforge.net/DTD/sodipodi-0.dtd"
   xmlns:xlink="http://www.w3.org/1999/xlink"
   xmlns="http://www.w3.org/2000/svg"
   xmlns:svg="http://www.w3.org/2000/svg">
  <sodipodi:namedview
     id="namedview7"
     pagecolor="#ffffff"
     bordercolor="#666666"
     borderopacity="1.0"
     inkscape:pageshadow="2"
     inkscape:pageopacity="0.0"
     inkscape:pagecheckerboard="0"
     inkscape:document-units="mm"
     showgrid="false"
     inkscape:zoom="0.54252946"
     inkscape:cx="642.36143"
     inkscape:cy="254.36407"
     inkscape:window-width="1600"
     inkscape:window-height="837"
     inkscape:window-x="-8"
     inkscape:window-y="-8"
     inkscape:window-maximized="1"
     inkscape:current-layer="g1658"
     fit-margin-top="0"
     fit-margin-left="0"
     fit-margin-right="0"
     fit-margin-bottom="0"
     showguides="true"
     inkscape:guide-bbox="true"
     units="px" />
  <defs
     id="defs2">
    <linearGradient
       inkscape:collect="always"
       id="linearGradient17682">
      <stop
         style="stop-color:#483745;stop-opacity:1;"
         offset="0"
         id="stop17678" />
      <stop
         style="stop-color:#483745;stop-opacity:0;"
         offset="1"
         id="stop17680" />
    </linearGradient>
    <linearGradient
       inkscape:collect="always"
       id="linearGradient11853">
      <stop
         style="stop-color:#453748;stop-opacity:1;"
         offset="0"
         id="stop11849" />
      <stop
         style="stop-color:#453748;stop-opacity:0;"
         offset="1"
         id="stop11851" />
    </linearGradient>
    <inkscape:path-effect
       effect="powerstroke"
       id="path-effect11402"
       is_visible="true"
       lpeversion="1"
       offset_points="0.97340249,2.0805833"
       not_jump="true"
       sort_points="true"
       interpolator_type="CentripetalCatmullRom"
       interpolator_beta="0.75"
       start_linecap_type="round"
       linejoin_type="spiro"
       miter_limit="4"
       scale_width="1"
       end_linecap_type="round" />
    <inkscape:path-effect
       effect="simplify"
       id="path-effect11400"
       is_visible="true"
       lpeversion="1"
       steps="1"
       threshold="0.0032025118"
       smooth_angles="0"
       helper_size="0"
       simplify_individual_paths="false"
       simplify_just_coalesce="false"
       step="1" />
    <inkscape:perspective
       sodipodi:type="inkscape:persp3d"
       inkscape:vp_x="150.93843 : 40.945823 : 1"
       inkscape:vp_y="0 : 1000 : 0"
       inkscape:vp_z="202.6551 : 40.945823 : 1"
       inkscape:persp3d-origin="176.79677 : 29.589851 : 1"
       id="perspective10212" />
    <inkscape:path-effect
       effect="spiro"
       id="path-effect30547"
       is_visible="true"
       lpeversion="1" />
    <inkscape:path-effect
       effect="spiro"
       id="path-effect30187"
       is_visible="true"
       lpeversion="1" />
    <inkscape:path-effect
       effect="spiro"
       id="path-effect7540"
       is_visible="true"
       lpeversion="1" />
    <inkscape:path-effect
       effect="powerstroke"
       id="path-effect968"
       is_visible="true"
       lpeversion="1"
       offset_points="0.40388041,2.2860221"
       not_jump="true"
       sort_points="true"
       interpolator_type="CentripetalCatmullRom"
       interpolator_beta="0.75"
       start_linecap_type="round"
       linejoin_type="spiro"
       miter_limit="4"
       scale_width="1"
       end_linecap_type="round" />
    <inkscape:path-effect
       effect="simplify"
       id="path-effect966"
       is_visible="true"
       lpeversion="1"
       steps="1"
       threshold="0.0032025118"
       smooth_angles="0"
       helper_size="0"
       simplify_individual_paths="false"
       simplify_just_coalesce="false"
       step="1" />
    <inkscape:path-effect
       effect="spiro"
       id="path-effect963"
       is_visible="true"
       lpeversion="1" />
    <linearGradient
       inkscape:collect="always"
       xlink:href="#linearGradient11853"
       id="linearGradient11855"
       x1="139.50539"
       y1="75.544434"
       x2="9.903019"
       y2="-61.441429"
       gradientUnits="userSpaceOnUse" />
    <linearGradient
       inkscape:collect="always"
       xlink:href="#linearGradient17682"
       id="linearGradient17684"
       x1="246.21423"
       y1="37.702581"
       x2="656.96021"
       y2="-24.310619"
       gradientUnits="userSpaceOnUse" />
  </defs>
  <g
     inkscape:label="Capa 1"
     inkscape:groupmode="layer"
     id="layer1"
     transform="translate(-44.43625,-24.500305)">
    <g
       id="g1658"
       transform="matrix(0.79757078,0,0,0.42365309,-5.3808965,37.530422)">
      <g
         id="g19059">
        <path
           d="m 62.461098,160.56364 v 0 c 31.795164,-217.149743 60.581322,-126.453254 58.017182,0 h 6.82556 L 126.69237,22.588129 C 86.804431,-1.3047773 66.783265,-51.543231 62.461098,160.56364 Z"
           style="font-family:Poligonal;-inkscape-font-specification:Poligonal;fill:url(#linearGradient11855);fill-opacity:1;stroke-width:0.797947"
           id="path26084-2"
           sodipodi:nodetypes="cccccc" />
        <g
           id="g4209"
           transform="matrix(1.6603564,0,0,3.1257929,-82.796783,-139.97211)"
           inkscape:export-filename="C:\workshop\antiguo sitio web kosho y varias fotografias\logo\logo.png"
           inkscape:export-xdpi="300"
           inkscape:export-ydpi="300">
          <path
             d="m 92.360349,79.102587 c 0.378416,-0.198968 1.249772,-0.55047 2.766657,-1.119141 0.02135,-0.008 0.04305,-0.01616 0.06507,-0.02445 0.983036,-0.345725 3.117803,-1.120677 4.887409,-1.599163 0.81147,-0.208471 1.68419,-0.338973 2.56966,-0.338431 0.82385,5.05e-4 1.64496,0.114524 2.42587,0.375194 0.009,0.0032 0.019,0.0063 0.0285,0.0093 1.03997,0.33057 1.99469,0.856172 3.25848,1.526865 1.15784,0.614465 2.55405,1.335924 4.14825,1.71154 1.26894,0.311035 2.54946,0.382146 3.77638,0.286482 1.25862,-0.09813 2.46811,-0.37142 3.57917,-0.744617 0.0308,-0.01035 0.0613,-0.02141 0.0916,-0.03319 2.04169,-0.794003 3.78678,-1.632152 5.31029,-2.197726 0.004,-0.0016 0.009,-0.0033 0.0132,-0.005 0.128,-0.04851 0.23063,-0.08669 0.29577,-0.110802 a 2.0805833,2.0805833 90 0 0 -1.44456,-3.902382 c -0.071,0.02628 -0.18168,0.06746 -0.31932,0.119599 -1.72504,0.640385 -3.51212,1.495245 -5.31705,2.199901 -0.81986,0.271834 -1.67643,0.458847 -2.53264,0.525606 -0.85068,0.06633 -1.68251,0.01258 -2.46922,-0.181139 -0.008,-0.0018 -0.015,-0.0037 -0.0226,-0.0054 -1.01554,-0.238091 -1.98703,-0.716693 -3.15873,-1.338515 -1.13452,-0.602087 -2.46072,-1.341892 -3.93439,-1.812356 -1.26112,-0.419021 -2.52936,-0.58379 -3.72657,-0.584524 -1.29478,-7.94e-4 -2.52405,0.189792 -3.622569,0.473155 -0.0075,0.0019 -0.015,0.0039 -0.02249,0.0059 -1.963561,0.529977 -4.30221,1.380163 -5.217339,1.702009 -0.01491,0.0052 -0.02976,0.01066 -0.04455,0.01624 -0.02647,0.01 -0.05267,0.01984 -0.07846,0.02951 -1.37153,0.514178 -2.662171,1.027292 -3.242479,1.332415 a 2.0805833,2.0805833 90 0 0 1.936542,3.683084 z"
             id="path-1"
             inkscape:path-effect="#path-effect11400;#path-effect11402"
             inkscape:original-d="m 91.392078,77.261045 c 0.969804,-0.591476 6.492024,-2.476282 7.942431,-2.858108 9.206331,-2.423612 10.252661,5.549825 19.400361,2.965961 1.09643,-0.309697 3.4547,-1.49416 6.11958,-2.480623"
             style="fill:#ff2a7f;fill-rule:nonzero;stroke:none;stroke-width:0.643561px;stroke-linecap:butt;stroke-linejoin:miter;stroke-opacity:1"
             sodipodi:nodetypes="cssc" />
        </g>
        <text
           xml:space="preserve"
           style="font-style:normal;font-variant:normal;font-weight:normal;font-stretch:normal;font-size:140.505px;line-height:1.25;font-family:Verdana;-inkscape-font-specification:Verdana;stroke-width:3.51263;fill:url(#linearGradient17684);fill-opacity:1"
           x="233.52213"
           y="90.014626"
           id="text13428"
           transform="scale(0.54415191,1.8377221)"><tspan
             sodipodi:role="line"
             id="tspan13426"
             style="font-style:normal;font-variant:normal;font-weight:normal;font-stretch:normal;font-family:Verdana;-inkscape-font-specification:Verdana;stroke-width:3.51263;fill:url(#linearGradient17684);fill-opacity:1"
             x="233.52213"
             y="90.014626">rtko</tspan></text>
      </g>
    </g>
    <path
       style="fill:#000000;stroke:none;stroke-width:1px;stroke-linecap:butt;stroke-linejoin:miter;stroke-opacity:1"
       d="M 184.32179,346.52496 180.63535,587.9865"
       id="path961"
       inkscape:path-effect="#path-effect963"
       inkscape:original-d="M 184.32179,346.52496 180.63535,587.9865" />
    <path
       style="fill:#ff5555;fill-opacity:1;stroke:none;stroke-width:0.0487655;stroke-linejoin:bevel;paint-order:markers fill stroke"
       d=""
       id="path33999"
       transform="matrix(0.26458333,0,0,0.26458333,26.037849,62.911327)" />
  </g>
</svg>
